<?xml version="1.0" standalone="no"?><!DOCTYPE svg PUBLIC "-//W3C//DTD SVG 1.1//EN" "http://www.w3.org/Graphics/SVG/1.1/DTD/svg11.dtd"><svg t="1570526933161" class="icon" viewBox="0 0 1024 1024" version="1.1" xmlns="http://www.w3.org/2000/svg" p-id="6411" xmlns:xlink="http://www.w3.org/1999/xlink" width="200" height="200"><defs><style type="text/css"></style></defs><path d="M787.669881 852.200749h18.590291v11.499331h-18.590291z" fill="#C9C9C9" p-id="6412"></path><path d="M793.035061 857.951393c0 3.259807-2.48888 5.748687-5.748686 5.748687-3.25785 0-5.748687-2.48888-5.748687-5.748687 0-3.255893 2.490837-5.748687 5.748687-5.748687 3.25785-0.001957 5.748687 2.68259 5.748686 5.748687zM811.815148 857.951393c0 3.259807-2.490837 5.748687-5.748686 5.748687-3.25785 0-5.748687-2.48888-5.748687-5.748687 0-3.255893 2.490837-5.748687 5.748687-5.748687 3.25785-0.001957 5.748687 2.68259 5.748686 5.748687zM254.924322 852.200749h503.426865v11.499331H254.924322z" fill="#C9C9C9" p-id="6413"></path><path d="M763.908121 857.951393c0 3.259807-2.492793 5.748687-5.748687 5.748687-3.25785 0-5.748687-2.48888-5.748687-5.748687 0-3.255893 2.490837-5.748687 5.748687-5.748687 3.255893-0.001957 5.748687 2.68259 5.748687 5.748687zM260.674966 857.951393c0 3.259807-2.490837 5.748687-5.748687 5.748687-3.259807 0-5.748687-2.48888-5.748687-5.748687 0-3.255893 2.48888-5.748687 5.748687-5.748687 3.066097-0.001957 5.748687 2.68259 5.748687 5.748687z" fill="#C9C9C9" p-id="6414"></path><path d="M474.538637 881.717067m-9.006536 0a9.006537 9.006537 0 1 0 18.013073 0 9.006537 9.006537 0 1 0-18.013073 0Z" fill="#C9C9C9" p-id="6415"></path><path d="M351.507348 874.81786h96.776736v11.497374h-96.776736zM505.007852 874.81786h102.908929v11.497374h-102.908929z" fill="#C9C9C9" p-id="6416"></path><path d="M356.874485 880.56459c0 3.255893-2.48888 5.748687-5.748687 5.748687-3.259807 0-5.748687-2.492793-5.748687-5.748687 0-3.255893 2.48888-5.748687 5.748687-5.748687 3.25785 0.001957 5.748687 2.684547 5.748687 5.748687zM454.22648 880.56459c0 3.255893-2.490837 5.748687-5.748686 5.748687-3.25785 0-5.748687-2.492793-5.748687-5.748687 0-3.255893 2.490837-5.748687 5.748687-5.748687 3.06414 0.001957 5.748687 2.684547 5.748686 5.748687zM510.373032 880.56459c0 3.255893-2.48888 5.748687-5.748687 5.748687-3.255893 0-5.748687-2.492793-5.748687-5.748687 0-3.255893 2.492793-5.748687 5.748687-5.748687 3.068053 0.001957 5.748687 2.684547 5.748687 5.748687zM613.475671 880.56459c0 3.255893-2.492793 5.748687-5.748687 5.748687-3.25785 0-5.748687-2.492793-5.748687-5.748687 0-3.255893 2.490837-5.748687 5.748687-5.748687 3.255893 0.001957 5.748687 2.684547 5.748687 5.748687z" fill="#C9C9C9" p-id="6417"></path><path d="M606.576464 898.769417h93.708682v11.49933h-93.708682zM737.078307 898.769417h42.925354v11.49933h-42.925354z" fill="#C9C9C9" p-id="6418"></path><path d="M612.323194 904.518104c0 3.255893-2.48888 5.748687-5.748687 5.748687-3.259807 0-5.748687-2.492793-5.748687-5.748687 0-3.255893 2.48888-5.748687 5.748687-5.748687 3.066097 0 5.748687 2.684547 5.748687 5.748687zM786.327608 904.518104c0 3.255893-2.48888 5.748687-5.748687 5.748687-3.255893 0-5.748687-2.492793-5.748687-5.748687 0-3.255893 2.492793-5.748687 5.748687-5.748687 3.259807 0 5.748687 2.684547 5.748687 5.748687zM710.632 910.268747a10.14923 10.14923 0 0 1-1.721867-5.748686c0-5.556933 4.598167-10.157057 10.1551-10.157057s10.1551 4.60208 10.1551 10.157057a10.147274 10.147274 0 0 1-1.723823 5.748686h12.647894a19.286864 19.286864 0 0 0 0.573303-4.78992c0-11.689127-9.57984-21.270924-21.268967-21.270924-11.691084 0-21.274837 9.581797-21.274837 21.270924 0 1.534027 0.195667 3.255893 0.577216 4.78992h11.880881zM592.200833 904.518104c0 3.255893-2.48888 5.748687-5.748686 5.748687h-9.579841c-3.25785 0-5.748687-2.492793-5.748686-5.748687 0-3.255893 2.490837-5.748687 5.748686-5.748687h9.579841c3.068053 0 5.748687 2.684547 5.748686 5.748687z" fill="#C9C9C9" p-id="6419"></path><path d="M228.863479 225.750422c-10.34881 10.73036-27.403117 10.92407-38.137391 0.573303l-17.629567-17.056264c-10.73036-10.346854-10.922114-27.403117-0.57526-38.135434 10.34881-10.732317 27.403117-10.92407 38.13739-0.573303l17.629568 17.054307c10.73036 10.540564 10.922114 27.596827 0.57526 38.137391z" fill="#E9E8E8" p-id="6420"></path><path d="M774.065178 192.213154c0 1.342273-1.72578 2.490837-3.83311 2.490837h-41.966588c-2.10733 0-3.835067-1.148563-3.835067-2.490837v-6.5157c0-1.342273 1.727737-2.490837 3.835067-2.490836h41.966588c2.10733 0 3.83311 1.148563 3.83311 2.490836v6.5157z" fill="#E9E8E8" p-id="6421"></path><path d="M745.89309 213.867585c-1.342273 0-2.490837-1.72578-2.490836-3.831154V167.874177c0-2.10733 1.15052-3.83311 2.490836-3.83311h6.5157c1.342273 0 2.490837 1.72578 2.490837 3.83311v41.968544c0 2.10733-1.15052 3.83311-2.490837 3.833111l-6.5157 0.191753z" fill="#E9E8E8" p-id="6422"></path><path d="M468.212734 148.520787c0 0.765057-1.146607 1.53207-2.48888 1.53207h-25.871047c-1.342273 0-2.490837-0.767013-2.490837-1.53207v-4.024864c0-0.767013 1.15052-1.534027 2.490837-1.534026h25.871047c1.34423 0 2.48888 0.767013 2.48888 1.534026v4.024864z" fill="#E9E8E8" p-id="6423"></path><path d="M450.966674 161.933737c-0.765057 0-1.53207-1.15052-1.53207-2.490837V133.571853c0-1.340317 0.76897-2.490837 1.53207-2.490837h4.02682c0.767013 0 1.534027 1.15052 1.534026 2.490837v25.871047c0 1.342273-0.76897 2.490837-1.534026 2.490837h-4.02682z" fill="#E9E8E8" p-id="6424"></path><path d="M608.490084 117.476313c-13.221197 0-23.761761 10.73036-23.761761 23.76176s10.73036 23.763717 23.761761 23.763717 23.763717-10.73036 23.763717-23.763717-10.73036-23.761761-23.763717-23.76176z m-0.38155 35.06738c-6.132193 0-10.922114-4.981673-10.922114-10.92407 0-5.94044 4.979717-10.92407 10.922114-10.92407 5.94044 0 10.922114 4.98363 10.922113 10.92407 0 5.942397-4.981673 10.92407-10.922113 10.92407z" fill="#E9E8E8" p-id="6425"></path><path d="M504.242795 332.296794m-15.330484 0a15.330484 15.330484 0 1 0 30.660968 0 15.330484 15.330484 0 1 0-30.660968 0Z" fill="#E9E8E8" p-id="6426"></path><path d="M284.244973 436.547997m-9.19829 0a9.19829 9.19829 0 1 0 18.39658 0 9.19829 9.19829 0 1 0-18.39658 0Z" fill="#E9E8E8" p-id="6427"></path><path d="M883.679603 684.522239L839.605686 644.087721c4.78992-22.419487 7.282713-45.801654 7.282713-69.561458 0-185.122194-150.242653-335.362891-335.364847-335.362891-46.566711 0-90.834339 9.581797-131.268857 26.636104l-38.904404-40.434518c-4.024863-4.216617-10.922114-4.406413-15.136774-0.191753-4.21466 4.024863-4.406413 10.922114-0.191753 15.13873l33.916861 35.069338c7.66622 10.540564 6.901163 25.105991-2.299084 34.877584-10.346854 10.92407-27.594871 11.307577-38.51894 0.76897l-6.707454-6.517657-39.092244-37.943681c-10.540564-10.1551-27.021567-9.771594-37.176668 0.57526-10.157057 10.34881-9.775507 27.021567 0.573304 37.178625l44.267627 42.925354a26.528487 26.528487 0 0 1-0.767013 34.877584c-9.965304 10.92407-26.827857 11.691084-37.560174 1.72578l-4.212704-3.83311-0.195666 0.191753-38.706781-34.302324c-16.48296-14.948934-41.780704-13.798414-56.917478 2.490837-14.946977 16.479047-13.798414 41.776791 2.490837 56.915521l53.274164 48.674041c-14.56347 37.560174-22.421444 78.184488-22.421444 120.73025 0 110.762989 53.659628 208.883955 136.254443 270.016093h398.025143a332.915101 332.915101 0 0 0 50.208068-45.611858l17.631523 16.099454c16.481004 14.94502 41.776791 13.796457 56.915522-2.492794 15.140687-16.28925 13.798414-41.774834-2.490837-56.913564l-25.295787-23.188458v-0.195666l-36.026148-32.960051c-7.66622-6.89725-8.24148-18.782044-1.15052-26.448264 7.089003-7.66622 18.780087-8.237567 26.446307-1.148563l27.213321 24.91228v-0.191753l26.634147 24.33702c9.96726 9.19829 25.681251 8.433234 34.687788-1.530113 9.388087-10.1551 8.814784-25.679294-1.342274-34.877584z m-623.004637-118.239413c0 0.76897-1.15052 1.534027-2.490837 1.534027h-9.392v9.388087c0 1.346187-0.765057 2.492793-1.53207 2.492793h-4.024863c-0.767013 0-1.53207-1.148563-1.53207-2.492793v-9.388087h-9.390044c-1.342273 0-2.490837-0.767013-2.490837-1.534027v-4.022907c0-0.76897 1.15052-1.534027 2.490837-1.534026h9.390044v-9.392c0-1.340317 0.767013-2.48888 1.53207-2.48888h4.024863c0.76897 0 1.53207 1.15052 1.53207 2.48888v9.392h9.392c1.342273 0 2.490837 0.767013 2.490837 1.534026v4.022907z m23.378254-107.890602c-11.88088 0-21.652474-9.57984-21.652474-21.654431 0-12.072634 9.57984-21.65443 21.652474-21.65443 11.88088 0 21.652474 9.581797 21.652474 21.65443s-9.771594 21.65443-21.652474 21.654431z m220.189575-98.692312c-15.524194 0-27.980334-12.45614-27.980334-27.978378a27.888371 27.888371 0 0 1 27.980334-27.97642 27.888371 27.888371 0 0 1 27.978377 27.97642 27.888371 27.888371 0 0 1-27.978377 27.978378z m209.073751 20.699577c0 0.765057-1.148563 1.53207-2.490836 1.53207h-9.390044v9.390043c0 1.342273-0.767013 2.490837-1.53207 2.490837h-4.024863c-0.767013 0-1.534027-1.15052-1.534027-2.490837v-9.390043h-9.390044c-1.342273 0-2.48888-0.767013-2.48888-1.53207v-3.831154c0-0.76897 1.148563-1.535983 2.48888-1.535983h9.390044v-9.388087c0-1.342273 0.76897-2.490837 1.534027-2.490837h4.024863c0.767013 0 1.53207 1.148563 1.53207 2.490837v9.388087h9.390044c1.34423 0 2.490837 0.767013 2.490836 1.535983v3.831154z" fill="#E9E8E8" p-id="6428"></path><path d="M664.832302 574.526263c0 76.268912-68.990112 137.978266-153.88401 137.978267-4.600123 0-9.008494-0.195667-13.412951-0.577217-9.392-0.76897-26.827857 13.41295-38.522854 21.656387-2.297127-14.567384 0.195667-27.982291-11.113867-33.153761-23.763717-10.157057-90.836295-69.755168-90.836295-125.903676 0-76.272825 68.988155-137.978266 153.88401-137.978266 84.897812 0 153.885967 61.897195 153.885967 137.978266z" fill="#FFFFFF" p-id="6429"></path><path d="M679.397729 574.526263a11.618687 11.618687 0 0 0-11.689127-11.69304 11.620644 11.620644 0 0 0-11.694997 11.69304c0 66.687115-64.771538 120.728293-144.108503 120.728293h-0.573304c-2.490837 0-5.175383 0.573303-7.470553 2.30104l-43.696281 32.768297v-31.236227c0-0.577217 0-1.152477-0.191754-1.72578 0.958767-5.367137-2.105373-10.926027-7.47251-12.841604-51.550341-19.545144-84.895855-62.854005-84.895855-110.189686a11.614774 11.614774 0 0 0-11.689127-11.689127 11.614774 11.614774 0 0 0-11.691083 11.689127c0 54.812105 36.028104 104.636666 92.562075 128.969773v50.208068c0 4.40837 2.48888 8.43519 6.513743 10.540564 1.72578 0.767013 3.449603 1.152477 5.175384 1.152476a12.060894 12.060894 0 0 0 7.09096-2.30104l59.406358-44.459381c90.834339-1.146607 164.424574-65.153088 164.424574-143.914793zM358.792018 546.543972c6.130237 2.111243 12.839647-0.958767 14.946977-7.089003 18.206784-50.591574 74.930552-85.852665 137.978267-85.852665 63.239468 0 120.154989 35.452844 138.170019 86.234215 1.721867 4.791877 6.12828 7.861887 10.922114 7.861887 1.340317 0 2.68259-0.195667 3.831153-0.767014 6.132193-2.10733 9.19829-8.814784 7.090961-14.95089-21.65443-60.938428-86.044419-101.756452-160.207957-101.756452-73.776118 0-138.168063 40.626271-160.014247 101.183149-2.111243 6.32199 1.148563 13.029444 7.282713 15.136773z" fill="#C9C9C9" p-id="6430"></path><path d="M466.107361 518.755392a11.618687 11.618687 0 0 0-11.691084 11.694997v11.497373c0 6.513743 5.175383 11.689127 11.691084 11.689127s11.691084-5.175383 11.691083-11.689127v-11.497373a11.6226 11.6226 0 0 0-11.691083-11.694997zM557.323249 518.755392a11.618687 11.618687 0 0 0-11.689127 11.694997v11.497373a11.614774 11.614774 0 0 0 11.689127 11.689127 11.614774 11.614774 0 0 0 11.691084-11.689127v-11.497373a11.618687 11.618687 0 0 0-11.691084-11.694997zM540.652449 583.147337c-5.367137-3.449603-12.647894-2.109287-16.099454 3.25785 0 0-5.175383 7.474467-12.839647 7.474467-7.47251 0-12.07459-6.70941-12.45614-7.284671a11.720434 11.720434 0 0 0-16.097497-3.641356c-5.556933 3.45156-7.09096 10.540564-3.83311 16.099453 4.21466 6.705497 15.712034 18.204827 32.193037 18.204827 16.48296 0 28.172087-11.30562 32.386748-18.013073 3.64527-5.363223 2.1132-12.458097-3.253937-16.097497z" fill="#C9C9C9" p-id="6431"></path></svg>