<?xml version="1.0" standalone="no"?><!DOCTYPE svg PUBLIC "-//W3C//DTD SVG 1.1//EN" "http://www.w3.org/Graphics/SVG/1.1/DTD/svg11.dtd"><svg t="1570526907204" class="icon" viewBox="0 0 1024 1024" version="1.1" xmlns="http://www.w3.org/2000/svg" p-id="5953" xmlns:xlink="http://www.w3.org/1999/xlink" width="200" height="200"><defs><style type="text/css"></style></defs><path d="M787.204195 852.226186h18.57855v11.49346h-18.57855z" fill="#C9C9C9" p-id="5954"></path><path d="M792.567418 857.972916c0 3.253937-2.486923 5.74673-5.744773 5.74673-3.259807 0-5.748687-2.490837-5.748687-5.74673 0-3.259807 2.486923-5.748687 5.748687-5.748687 3.255893 0.001957 5.744773 2.684547 5.744773 5.748687zM811.339678 857.972916c0 3.253937-2.490837 5.74673-5.748686 5.74673-3.25785 0-5.74673-2.490837-5.74673-5.74673 0-3.259807 2.486923-5.748687 5.74673-5.748687 3.25785 0.001957 5.748687 2.684547 5.748686 5.748687zM254.695392 852.226186h503.201849v11.49346H254.695392z" fill="#C9C9C9" p-id="5955"></path><path d="M763.452217 857.972916c0 3.253937-2.48888 5.74673-5.74673 5.74673-3.25785 0-5.74673-2.490837-5.74673-5.74673 0-3.259807 2.486923-5.748687 5.74673-5.748687 3.255893 0.001957 5.74673 2.684547 5.74673 5.748687zM260.440166 857.972916c0 3.253937-2.48888 5.74673-5.74673 5.74673-3.255893 0-5.748687-2.490837-5.748687-5.74673 0-3.259807 2.490837-5.748687 5.748687-5.748687 3.06414 0.001957 5.74673 2.684547 5.74673 5.748687z" fill="#C9C9C9" p-id="5956"></path><path d="M474.209917 881.722937m-9.002623 0a9.002624 9.002624 0 1 0 18.005247 0 9.002624 9.002624 0 1 0-18.005247 0Z" fill="#C9C9C9" p-id="5957"></path><path d="M351.235371 874.827643h96.733689v11.491504h-96.733689zM504.667391 874.827643h102.863926v11.491504h-102.863926z" fill="#C9C9C9" p-id="5958"></path><path d="M356.600551 880.572417c0 3.25785-2.490837 5.74673-5.74673 5.74673s-5.748687-2.486923-5.748686-5.74673c0-3.253937 2.490837-5.74673 5.748686-5.74673 3.255893 0.001957 5.74673 2.68259 5.74673 5.74673zM453.907544 880.572417c0 3.25785-2.490837 5.74673-5.748687 5.74673-3.255893 0-5.748687-2.486923-5.748687-5.74673 0-3.253937 2.490837-5.74673 5.748687-5.74673 3.066097 0.001957 5.748687 2.68259 5.748687 5.74673zM510.030615 880.572417c0 3.25785-2.48888 5.74673-5.74673 5.74673-3.255893 0-5.748687-2.486923-5.748687-5.74673 0-3.253937 2.490837-5.74673 5.748687-5.74673 3.066097 0.001957 5.74673 2.68259 5.74673 5.74673zM613.084337 880.572417c0 3.25785-2.48888 5.74673-5.74673 5.74673-3.255893 0-5.748687-2.486923-5.748687-5.74673 0-3.253937 2.490837-5.74673 5.748687-5.74673 3.25785 0.001957 5.74673 2.68259 5.74673 5.74673z" fill="#C9C9C9" p-id="5959"></path><path d="M606.191 898.769417h93.665636v11.49346h-93.665636zM736.6361 898.769417h42.907744v11.49346h-42.907744z" fill="#C9C9C9" p-id="5960"></path><path d="M611.935774 904.516147c0 3.25785-2.48888 5.74673-5.74673 5.74673-3.25785 0-5.748687-2.486923-5.748687-5.74673 0-3.253937 2.48888-5.748687 5.748687-5.748687 3.06414 0.001957 5.74673 2.684547 5.74673 5.748687zM785.863878 904.516147c0 3.25785-2.48888 5.74673-5.748687 5.74673-3.255893 0-5.74673-2.486923-5.74673-5.74673 0-3.253937 2.48888-5.748687 5.74673-5.748687 3.25785 0.001957 5.748687 2.684547 5.748687 5.748687zM710.201533 910.262877a10.127707 10.127707 0 0 1-1.72578-5.74673c0-5.55302 4.600123-10.151187 10.153143-10.151187s10.151187 4.598167 10.151187 10.151187a10.117924 10.117924 0 0 1-1.72578 5.74673h12.643981a19.433614 19.433614 0 0 0 0.573303-4.787963c0-11.683257-9.577884-21.26114-21.263097-21.261141-11.683257 0-21.259184 9.57984-21.259184 21.261141 0 1.534027 0.189797 3.259807 0.57526 4.787963h11.876967zM591.823197 904.516147c0 3.25785-2.486923 5.74673-5.748687 5.74673h-9.577884c-3.255893 0-5.74673-2.486923-5.74673-5.74673 0-3.253937 2.48888-5.748687 5.74673-5.748687h9.577884c3.066097 0.001957 5.748687 2.684547 5.748687 5.748687z" fill="#C9C9C9" p-id="5961"></path><path d="M228.644332 226.049792c-10.340984 10.726447-27.393334 10.920157-38.115868 0.573303l-17.623697-17.048437c-10.726447-10.34294-10.920157-27.391377-0.57526-38.117824 10.34294-10.728404 27.393334-10.9182 38.115868-0.57526l17.623697 17.048437c10.728404 10.53665 10.920157 27.585087 0.57526 38.119781z" fill="#E9E8E8" p-id="5962"></path><path d="M467.889884 148.855377c0 0.765057-1.148563 1.53207-2.48888 1.53207h-25.859307c-1.342273 0-2.48888-0.767013-2.48888-1.53207V144.83247c0-0.765057 1.148563-1.53207 2.48888-1.53207h25.859307c1.342273 0 2.48888 0.767013 2.48888 1.53207v4.022907z" fill="#E9E8E8" p-id="5963"></path><path d="M450.649694 162.264414c-0.767013 0-1.530113-1.15052-1.530114-2.492794V133.912313c0-1.33836 0.765057-2.48888 1.530114-2.48888h4.022906c0.76897 0 1.53207 1.15052 1.53207 2.48888v25.859307c0 1.342273-0.765057 2.492793-1.53207 2.492794h-4.022906z" fill="#E9E8E8" p-id="5964"></path><path d="M608.104621 117.822643c-13.217284 0-23.753934 10.726447-23.753934 23.751977 0 13.027487 10.728404 23.753934 23.753934 23.753934 13.217284 0 23.751977-10.726447 23.751977-23.753934 0-13.02553-10.726447-23.751977-23.751977-23.751977z m-0.383507 35.053684c-6.130237 0-10.916244-4.979717-10.916244-10.9182s4.979717-10.920157 10.916244-10.920157c5.938483 0 10.9182 4.981673 10.9182 10.920157 0 5.938483-4.979717 10.9182-10.9182 10.9182z" fill="#E9E8E8" p-id="5965"></path><path d="M503.900378 332.551161m-15.324614 0a15.324614 15.324614 0 1 0 30.649228 0 15.324614 15.324614 0 1 0-30.649228 0Z" fill="#E9E8E8" p-id="5966"></path><path d="M284.002346 436.753447m-9.194376 0a9.194377 9.194377 0 1 0 18.388753 0 9.194377 9.194377 0 1 0-18.388753 0Z" fill="#E9E8E8" p-id="5967"></path><path d="M883.17087 684.620072l-44.058264-40.416907c4.78992-22.411661 7.280757-45.780131 7.280757-69.534065 0-185.034144-149.984373-335.210271-335.214185-335.210271-46.547144 0-90.793249 9.577884-131.212113 26.624364l-38.884837-40.416908c-4.02095-4.21466-10.9182-4.404457-15.132861-0.189797-4.210747 4.02095-4.404457 10.916244-0.191753 15.130904l33.905121 35.053684c7.662307 10.534694 6.893337 25.094251-2.299084 34.861931-10.34294 10.920157-27.583131 11.301707-38.50133 0.767013l-6.703541-6.513743-39.078547-37.926071c-10.534694-10.151187-27.009827-9.76768-37.161014 0.573303-10.151187 10.534694-9.76768 27.009827 0.57526 37.162971l44.248061 42.905788a26.516747 26.516747 0 0 1-0.767014 34.861931c-9.959434 10.920157-26.816117 11.685214-37.54452 1.723823l-4.214661-3.831153-0.191753 0.189796-38.117824-34.86193c-16.473177-14.941107-41.757224-13.790587-56.890085 2.490836-14.941107 16.473177-13.790587 41.757224 2.490837 56.890085l53.250685 48.654474c-14.559557 37.544521-22.411661 78.149268-22.411661 120.67742 0 110.714073 53.634191 208.790035 136.19183 269.892823h397.849042a333.504058 333.504058 0 0 0 50.186545-45.588378l17.62174 16.091627c16.473177 14.93915 41.757224 13.790587 56.890085-2.490837s13.792544-41.759181-2.48888-56.888128l-25.284048-23.18063v-0.191754l-36.010494-32.946354c-7.662307-6.893337-8.239524-18.774217-1.15052-26.434567 7.08509-7.662307 18.77226-8.23561 26.432611-1.148563l27.20158 24.902497v-0.19371l26.624364 24.327237c9.96139 9.196334 25.667554 8.42932 34.861931-1.530113 8.626944-9.577884 8.051684-25.098164-2.10146-34.288628zM260.440166 566.435446c0 0.761143-1.15052 1.528157-2.48888 1.528157h-9.38613v9.38613c0 1.340317-0.76897 2.490837-1.53207 2.490837h-4.024864c-0.765057 0-1.53207-1.152477-1.53207-2.490837v-9.38613h-9.38613c-1.340317 0-2.48888-0.76897-2.48888-1.528157v-4.02682c0-0.765057 1.15052-1.53207 2.48888-1.53207h9.38613v-9.384173c0-1.342273 0.76897-2.492793 1.53207-2.492794h4.024864c0.765057 0 1.53207 1.152477 1.53207 2.492794v9.384173h9.38613c1.340317 0 2.48888 0.76897 2.48888 1.53207v4.02682z m23.372384-107.845599c-11.876967 0-21.646604-9.577884-21.646604-21.644647s9.577884-21.644647 21.646604-21.644647c11.873054 0 21.644647 9.577884 21.644647 21.644647s-9.771594 21.644647-21.644647 21.644647z m220.087828-98.647309c-15.51441 0-27.964681-12.45027-27.96468-27.96468s12.45027-27.964681 27.96468-27.964681c15.516367 0 27.966637 12.45027 27.966637 27.964681s-12.45027 27.964681-27.966637 27.96468z m208.983745 20.687837c0 0.765057-1.152477 1.53207-2.490837 1.53207h-9.38613v9.384174c0 1.342273-0.767013 2.490837-1.530113 2.490837h-4.024864c-0.767013 0-1.53207-1.15052-1.53207-2.490837v-9.384174h-9.38613c-1.342273 0-2.490837-0.767013-2.490837-1.53207v-3.831153c0-0.767013 1.15052-1.534027 2.490837-1.534027h9.38613v-9.384173c0-1.342273 0.767013-2.48888 1.53207-2.48888h4.024864c0.765057 0 1.530113 1.148563 1.530113 2.48888v9.384173h9.38613c1.340317 0 2.490837 0.767013 2.490837 1.534027v3.831153z" fill="#E9E8E8" p-id="5968"></path><path d="M562.798003 711.250306c0-43.799984 35.503717-79.301745 79.301745-79.301745 1.447933 0 2.88804 0.04109 4.316407 0.12327V501.689345l-86.198996-86.198996H419.23541c-14.749354 0-26.816117 12.06872-26.816118 26.816118v263.381036c0 14.747397 12.066764 26.816117 26.816118 26.816117h146.466286a79.315442 79.315442 0 0 1-2.903693-21.253314z" fill="#FFFFFF" p-id="5969"></path><path d="M441.649027 513.564355h110.714072a5.967833 5.967833 0 0 1 5.938484 5.94044 5.967833 5.967833 0 0 1-5.938484 5.936527h-110.714072a5.967833 5.967833 0 0 1-5.938484-5.936527 5.965877 5.965877 0 0 1 5.938484-5.94044zM441.649027 565.47668h161.09237a5.967833 5.967833 0 0 1 5.938484 5.936526 5.96979 5.96979 0 0 1-5.938484 5.936527h-161.09237a5.967833 5.967833 0 0 1-5.938484-5.936527 5.96392 5.96392 0 0 1 5.938484-5.936526zM435.710543 623.323574a5.96392 5.96392 0 0 1 5.938484-5.938483h161.09237a5.967833 5.967833 0 0 1 5.938484 5.938483 5.967833 5.967833 0 0 1-5.938484 5.93457h-161.09237a5.961963 5.961963 0 0 1-5.938484-5.93457z" fill="#FFFFFF" p-id="5970"></path><path d="M760.241327 799.126165l-45.126604-44.312631c19.801467-32.946354 15.17982-76.194558-13.438387-104.276639-33.449217-32.821127-87.464959-32.314351-120.286086 1.136823-32.823084 33.455087-32.314351 87.466915 1.136823 120.291956 28.616251 28.080124 71.944678 31.883884 104.507526 11.458241l44.568954 43.735414s8.66412-7.42555 16.441871-15.352007c7.781664-7.928414 12.195904-12.681157 12.195903-12.681157z m-71.737271-42.344224c-25.233174 25.718427-66.415138 26.111717-91.939856 0.870716-25.714514-25.233174-26.107804-66.417095-0.870716-91.939855s66.417095-26.105847 91.939855-0.870717c25.716471 25.045334 26.103891 66.227298 0.870717 91.939856z" fill="#C9C9C9" p-id="5971"></path><path d="M602.741397 565.47668h-161.09237a5.96392 5.96392 0 0 0-5.938484 5.936526 5.967833 5.967833 0 0 0 5.938484 5.936527h161.09237a5.96979 5.96979 0 0 0 5.938484-5.936527 5.967833 5.967833 0 0 0-5.938484-5.936526zM441.649027 525.251525h110.714072a5.96979 5.96979 0 0 0 5.938484-5.942397 5.965877 5.965877 0 0 0-5.938484-5.93457h-110.714072a5.96392 5.96392 0 0 0-5.938484 5.93457c0 3.449603 2.678677 5.942397 5.938484 5.942397zM602.741397 617.576844h-161.09237a5.967833 5.967833 0 0 0-5.938484 5.936527 5.965877 5.965877 0 0 0 5.938484 5.936527h161.09237a5.967833 5.967833 0 0 0 5.938484-5.936527 5.96979 5.96979 0 0 0-5.938484-5.936527zM587.035233 501.689345h59.382878l-86.198995-86.198996v59.380922c0 14.749354 12.064807 26.818074 26.816117 26.818074z" fill="#C9C9C9" p-id="5972"></path></svg>