<?xml version="1.0" standalone="no"?><!DOCTYPE svg PUBLIC "-//W3C//DTD SVG 1.1//EN" "http://www.w3.org/Graphics/SVG/1.1/DTD/svg11.dtd"><svg t="1570526924313" class="icon" viewBox="0 0 1024 1024" version="1.1" xmlns="http://www.w3.org/2000/svg" p-id="6260" xmlns:xlink="http://www.w3.org/1999/xlink" width="200" height="200"><defs><style type="text/css"></style></defs><path d="M787.253111 851.997256h18.580507v11.491504h-18.580507z" fill="#C9C9C9" p-id="6261"></path><path d="M792.616335 857.740073c0 3.255893-2.486923 5.748687-5.74673 5.748687-3.25785 0-5.748687-2.490837-5.748687-5.748687 0-3.255893 2.48888-5.744773 5.748687-5.744774 3.25785 0.001957 5.74673 2.68259 5.74673 5.744774zM811.388595 857.740073c0 3.255893-2.48888 5.748687-5.74673 5.748687-3.25785 0-5.748687-2.490837-5.748687-5.748687 0-3.255893 2.48888-5.744773 5.748687-5.744774 3.255893 0.001957 5.74673 2.68259 5.74673 5.744774zM254.744309 851.997256h503.199892v11.491504H254.744309z" fill="#C9C9C9" p-id="6262"></path><path d="M763.501134 857.740073c0 3.255893-2.48888 5.748687-5.748687 5.748687-3.255893 0-5.74673-2.490837-5.74673-5.748687 0-3.255893 2.48888-5.744773 5.74673-5.744774 3.259807 0.001957 5.748687 2.68259 5.748687 5.744774zM260.491039 857.740073c0 3.255893-2.48888 5.748687-5.74673 5.748687-3.255893 0-5.748687-2.490837-5.748687-5.748687 0-3.255893 2.490837-5.744773 5.748687-5.744774 3.06414 0.001957 5.74673 2.68259 5.74673 5.744774z" fill="#C9C9C9" p-id="6263"></path><path d="M474.260791 881.49205m-9.002624 0a9.002624 9.002624 0 1 0 18.005247 0 9.002624 9.002624 0 1 0-18.005247 0Z" fill="#C9C9C9" p-id="6264"></path><path d="M351.284288 874.5948h96.733689v11.49346h-96.733689zM504.716308 874.5948h102.860013v11.49346h-102.860013z" fill="#C9C9C9" p-id="6265"></path><path d="M356.647511 880.343487c0 3.255893-2.48888 5.74673-5.748686 5.74673-3.253937 0-5.74673-2.48888-5.74673-5.74673 0-3.255893 2.490837-5.748687 5.74673-5.748687 3.259807 0 5.748687 2.684547 5.748686 5.748687zM453.958417 880.343487c0 3.255893-2.490837 5.74673-5.748687 5.74673-3.255893 0-5.748687-2.48888-5.748687-5.74673 0-3.255893 2.490837-5.748687 5.748687-5.748687 3.066097 0 5.748687 2.684547 5.748687 5.748687zM509.887778 880.343487c0 3.255893-2.48888 5.74673-5.74673 5.74673-3.253937 0-5.74673-2.48888-5.74673-5.74673 0-3.255893 2.490837-5.748687 5.74673-5.748687s5.74673 2.684547 5.74673 5.748687zM613.133254 880.343487c0 3.255893-2.48888 5.74673-5.74673 5.74673-3.25785 0-5.748687-2.48888-5.748687-5.74673 0-3.255893 2.48888-5.748687 5.748687-5.748687 3.25785 0 5.74673 2.684547 5.74673 5.748687z" fill="#C9C9C9" p-id="6266"></path><path d="M606.239917 898.53853h93.665636v11.493461h-93.665636zM736.493263 898.53853h42.905788v11.493461h-42.905788z" fill="#C9C9C9" p-id="6267"></path><path d="M611.986647 904.285261c0 3.25785-2.490837 5.74673-5.74673 5.74673-3.25785 0-5.748687-2.486923-5.748687-5.74673 0-3.255893 2.48888-5.748687 5.748687-5.748687 3.06414 0.001957 5.74673 2.684547 5.74673 5.748687zM785.912795 904.285261c0 3.25785-2.48888 5.74673-5.748687 5.74673-3.255893 0-5.74673-2.486923-5.74673-5.74673 0-3.255893 2.48888-5.748687 5.74673-5.748687 3.259807 0.001957 5.748687 2.684547 5.748687 5.748687zM710.25045 910.031991a10.110097 10.110097 0 0 1-1.725781-5.74673c0-5.55302 4.598167-10.151187 10.151187-10.151187 5.556933 0 10.151187 4.598167 10.151187 10.151187a10.127707 10.127707 0 0 1-1.723823 5.74673h12.642024a19.24773 19.24773 0 0 0 0.57526-4.787964c0-11.683257-9.577884-21.259184-21.261141-21.259184s-21.26114 9.577884-21.26114 21.259184c0 1.534027 0.189797 3.259807 0.57526 4.787964h11.876967zM591.872113 904.285261c0 3.25785-2.48888 5.74673-5.74673 5.74673h-9.577883c-3.25785 0-5.748687-2.486923-5.748687-5.74673 0-3.255893 2.48888-5.748687 5.748687-5.748687h9.577883c3.06414 0.001957 5.74673 2.684547 5.74673 5.748687z" fill="#C9C9C9" p-id="6268"></path><path d="M228.693249 225.818905c-10.34294 10.72449-27.391377 10.9182-38.115868 0.573303l-17.623697-17.048437c-10.728404-10.34294-10.920157-27.393334-0.57526-38.117824 10.34294-10.726447 27.391377-10.9182 38.115867-0.573303l17.625654 17.04648c10.722534 10.534694 10.9182 27.583131 0.573304 38.119781z" fill="#E9E8E8" p-id="6269"></path><path d="M773.654278 192.295334c0 1.342273-1.723823 2.490837-3.83311 2.490837h-41.947021c-2.109287 0-3.83311-1.148563-3.833111-2.490837v-6.513743c0-1.342273 1.723823-2.48888 3.833111-2.48888h41.947021c2.109287 0 3.83311 1.148563 3.83311 2.48888v6.513743z" fill="#E9E8E8" p-id="6270"></path><path d="M745.495887 213.939982c-1.340317 0-2.48888-1.723823-2.48888-3.831154V167.970054c0-2.10733 1.15052-3.831153 2.48888-3.831154h6.511787c1.342273 0 2.48888 1.723823 2.48888 3.831154v41.950934c0 2.105373-1.148563 3.831153-2.48888 3.831154l-6.511787 0.18784z" fill="#E9E8E8" p-id="6271"></path><path d="M467.938801 148.62449c0 0.765057-1.15052 1.53207-2.48888 1.53207h-25.859308c-1.342273 0-2.490837-0.767013-2.490836-1.53207v-4.024863c0-0.765057 1.15052-1.53207 2.490836-1.53207h25.859308c1.340317 0 2.48888 0.76897 2.48888 1.53207v4.024863z" fill="#E9E8E8" p-id="6272"></path><path d="M450.69861 162.033527c-0.765057 0-1.530113-1.15052-1.530113-2.490837V133.681426c0-1.340317 0.767013-2.48888 1.530113-2.48888h4.024864c0.76897 0 1.53207 1.15052 1.53207 2.48888v25.859308c0 1.340317-0.765057 2.490837-1.53207 2.490836h-4.024864z" fill="#E9E8E8" p-id="6273"></path><path d="M607.961784 117.591756c-13.215327 0-23.751977 10.72449-23.751977 23.750021 0 13.027487 10.72449 23.753934 23.751977 23.753933s23.753934-10.72449 23.753934-23.753933c0-13.023574-10.534694-23.750021-23.753934-23.750021z m-0.191753 35.053684c-6.130237 0-10.9182-4.979717-10.918201-10.920157 0-5.936527 4.979717-10.9182 10.918201-10.9182 5.936527 0 10.920157 4.981673 10.920156 10.9182 0 5.94044-4.98363 10.920157-10.920156 10.920157z" fill="#E9E8E8" p-id="6274"></path><path d="M503.951251 332.318318m-15.324613 0a15.324614 15.324614 0 1 0 30.649227 0 15.324614 15.324614 0 1 0-30.649227 0Z" fill="#E9E8E8" p-id="6275"></path><path d="M284.051263 436.52256m-9.194377 0a9.194377 9.194377 0 1 0 18.388754 0 9.194377 9.194377 0 1 0-18.388754 0Z" fill="#E9E8E8" p-id="6276"></path><path d="M883.219787 684.389186l-44.056308-40.416908c4.787963-22.413617 7.2788-45.780131 7.2788-69.534065 0-185.038058-150.17417-335.212228-335.210271-335.212228-46.549101 0-90.795205 9.57984-131.214069 26.626321l-38.884838-40.418864c-4.024863-4.21466-10.9182-4.404457-15.13286-0.189797-4.210747 4.02095-4.404457 10.9182-0.191754 15.130904l33.905121 35.053684c7.662307 10.534694 6.893337 25.092294-2.299083 34.861931-10.34294 10.9182-27.585087 11.301707-38.501331 0.767013l-6.707454-6.513743-39.074634-37.928028c-10.534694-10.151187-27.009827-9.76768-37.161014 0.57526-10.151187 10.534694-9.769637 27.009827 0.57526 37.161014l44.248061 42.905788a26.518704 26.518704 0 0 1-0.767013 34.861931c-9.959434 10.920157-26.818074 11.685214-37.544521 1.72578l-4.21466-3.831154-0.191754 0.191754-38.117824-34.861931c-16.473177-14.941107-41.757224-13.790587-56.890084 2.490837-14.941107 16.47122-13.792544 41.757224 2.490836 56.888128l53.250685 48.654474c-14.5576 37.542564-22.411661 78.149268-22.411661 120.677419 0 110.714073 53.634191 208.790035 136.19183 269.892823h397.849043a333.396441 333.396441 0 0 0 50.186544-45.586421l17.62174 16.089671c16.473177 14.93915 41.757224 13.790587 56.890085-2.490837 15.130904-16.281424 13.792544-41.759181-2.48888-56.888128l-25.284047-23.180631v-0.191753l-36.012451-32.944397c-7.664264-6.895293-8.237567-18.774217-1.148563-26.436524 7.087047-7.662307 18.770304-8.23561 26.43261-1.148564l27.201581 24.900541v-0.189797l26.622407 24.325281c9.963347 9.196334 25.667554 8.42932 34.672134-1.528157 8.814784-9.577884 8.049727-25.098164-1.911663-34.288627z m-622.728748-118.184626c0 0.761143-1.15052 1.528157-2.48888 1.528156h-9.38613v9.388087c0 1.33836-0.76897 2.48888-1.53207 2.48888h-4.024863c-0.765057 0-1.53207-1.152477-1.53207-2.48888v-9.388087h-9.386131c-1.340317 0-2.48888-0.76897-2.48888-1.528156v-4.028777c0-0.761143 1.148563-1.528157 2.48888-1.528157h9.386131v-9.38613c0-1.340317 0.76897-2.490837 1.53207-2.490837h4.024863c0.765057 0 1.53207 1.152477 1.53207 2.490837v9.38613h9.38613c1.340317 0 2.48888 0.76897 2.48888 1.528157v4.028777z m23.366514-107.847556c-11.873054 0-21.644647-9.577884-21.644647-21.644647s9.577884-21.644647 21.644647-21.644648c11.876967 0 21.646604 9.577884 21.646604 21.644648 0.001957 12.06872-9.76768 21.644647-21.646604 21.644647z m220.093698-98.647309a27.876631 27.876631 0 0 1-27.96468-27.966637 27.874674 27.874674 0 0 1 27.96468-27.964681c15.516367 0 27.966637 12.45027 27.966638 27.964681 0 15.516367-12.452227 27.966637-27.966638 27.966637z m208.979832 20.689794c0 0.765057-1.148563 1.53207-2.48888 1.53207h-9.38613v9.384173c0 1.340317-0.767013 2.490837-1.534027 2.490837h-4.02095c-0.76897 0-1.53207-1.15052-1.53207-2.490837v-9.384173h-9.38613c-1.342273 0-2.48888-0.767013-2.48888-1.53207v-3.831154c0-0.767013 1.148563-1.534027 2.48888-1.534026h9.38613v-9.384174c0-1.342273 0.765057-2.48888 1.53207-2.48888h4.02095c0.76897 0 1.534027 1.148563 1.534027 2.48888v9.384174h9.38613c1.342273 0 2.48888 0.767013 2.48888 1.534026v3.831154z" fill="#E9E8E8" p-id="6277"></path><path d="M632.856454 715.799556H376.750305s-20.496084 3.25785-20.496084-23.94373V471.957794s0.383507-24.517034 25.477758-24.517034h89.834482s10.9182-2.299083 19.92278 11.873054c8.621074 13.60079 13.598834 22.219907 13.598834 22.219907s3.25785 3.637443 10.344897 3.637443h115.695746s20.49804-2.297127 20.49804 20.498041v187.718691c-0.191753-0.189797 3.06414 22.411661-18.770304 22.41166z m-18.967927-172.206237c0-5.35931-4.59621-9.957477-9.957477-9.957477H404.525189c-5.936527 0-10.340984 4.598167-10.340983 9.957477v0.958767c0 5.94044 4.59621 10.344897 10.340983 10.344897h199.405861c5.361267 0 9.957477-4.600123 9.957477-10.344897v-0.958767z" fill="#FFFFFF" p-id="6278"></path><path d="M629.232708 695.324996m-79.303702 0a79.303702 79.303702 0 1 0 158.607403 0 79.303702 79.303702 0 1 0-158.607403 0Z" fill="#EAEAEA" p-id="6279"></path><path d="M760.532871 798.318062l-58.701958-58.745005c20.112577-32.754601 15.897917-76.043895-12.450271-104.395996-33.138107-33.142021-87.155805-33.142021-120.293912 0-33.138107 33.140064-33.138107 87.153849 0 120.293913 28.348187 28.346231 71.639438 32.564804 104.395995 12.452227l58.551295 58.545424s8.779564-7.609477 16.633624-15.459623c7.852104-7.85406 11.961104-12.647894 11.865227-12.69094z m-85.328279-57.023138c-25.477757 25.475801-66.659722 25.475801-91.943769 0-25.477757-25.477757-25.477757-66.659722 0-91.941813 25.475801-25.287961 66.657765-25.477757 91.943769 0 25.477757 25.282091 25.477757 66.464055 0 91.941813z" fill="#C9C9C9" p-id="6280"></path></svg>