<?xml version="1.0" standalone="no"?><!DOCTYPE svg PUBLIC "-//W3C//DTD SVG 1.1//EN" "http://www.w3.org/Graphics/SVG/1.1/DTD/svg11.dtd"><svg t="1570526916672" class="icon" viewBox="0 0 1024 1024" version="1.1" xmlns="http://www.w3.org/2000/svg" p-id="6103" xmlns:xlink="http://www.w3.org/1999/xlink" width="200" height="200"><defs><style type="text/css"></style></defs><path d="M790.160718 851.680276h18.688124v11.60499h-18.688124z" fill="#C8C8C9" p-id="6104"></path><path d="M795.668735 857.479836a5.803473 5.803473 0 0 1-5.801517 5.807387 5.80543 5.80543 0 0 1 0-11.608904 5.803473 5.803473 0 0 1 5.801517 5.801517zM814.654272 857.479836a5.807387 5.807387 0 0 1-11.614774 0 5.80543 5.80543 0 0 1 5.809344-5.801517 5.80543 5.80543 0 0 1 5.80543 5.801517zM252.363046 851.680276h508.138518v11.60499H252.363046z" fill="#C8C8C9" p-id="6105"></path><path d="M766.283514 857.479836a5.80543 5.80543 0 0 1-11.61086 0 5.803473 5.803473 0 0 1 5.809343-5.801517 5.801517 5.801517 0 0 1 5.801517 5.801517zM258.166519 857.479836a5.80543 5.80543 0 1 1-11.61086 0 5.801517 5.801517 0 0 1 5.80543-5.801517 5.801517 5.801517 0 0 1 5.80543 5.801517z" fill="#C8C8C9" p-id="6106"></path><path d="M474.192307 881.45096m-9.02806 0a9.02806 9.02806 0 1 0 18.056121 0 9.02806 9.02806 0 1 0-18.056121 0Z" fill="#C8C8C9" p-id="6107"></path><path d="M350.002671 874.51849h97.747243v11.608904h-97.747243zM504.818055 874.51849h103.824649v11.608904h-103.824649z" fill="#C8C8C9" p-id="6108"></path><path d="M355.432421 880.32392a5.807387 5.807387 0 0 1-11.612816 0 5.807387 5.807387 0 0 1 11.612816 0zM453.5573 880.32392a5.80543 5.80543 0 1 1-11.612817 0 5.807387 5.807387 0 0 1 11.612817 0zM510.200845 880.32392a5.807387 5.807387 0 0 1-11.61086 0 5.80543 5.80543 0 0 1 11.61086 0zM614.446177 880.32392a5.807387 5.807387 0 0 1-11.61086 0 5.80543 5.80543 0 0 1 11.61086 0z" fill="#C8C8C9" p-id="6109"></path><path d="M607.349347 898.70289h94.630272v11.606947H607.349347zM739.062367 898.70289h43.363647v11.606947h-43.363647z" fill="#C8C8C9" p-id="6110"></path><path d="M613.154777 904.506364a5.8113 5.8113 0 0 1-5.80543 5.807387 5.807387 5.807387 0 0 1 0-11.610861 5.803473 5.803473 0 0 1 5.80543 5.803474zM788.873231 904.506364a5.8113 5.8113 0 0 1-5.80543 5.807387 5.807387 5.807387 0 0 1 0-11.610861 5.803473 5.803473 0 0 1 5.80543 5.803474zM712.39887 910.311794a10.317504 10.317504 0 1 1 17.04648 0h12.775077a21.699434 21.699434 0 0 0 0.541997-4.76057c0-11.88675-9.634627-21.521377-21.519421-21.521377-11.888707 0-21.523334 9.634627-21.523334 21.521377 0 1.63773 0.203493 3.226543 0.54591 4.76057h12.133291zM592.838707 904.510277a5.79956 5.79956 0 0 1-5.801517 5.801517h-9.671804a5.801517 5.801517 0 1 1 0-11.606947h9.671804a5.801517 5.801517 0 0 1 5.801517 5.80543z" fill="#C8C8C9" p-id="6111"></path><path d="M226.171105 227.077042c-10.4486 10.810584-27.680964 11.104084-38.491547 0.65744l-17.725444-17.126704c-10.810584-10.446644-11.104084-27.682921-0.65744-38.493504 10.4486-10.810584 27.682921-11.10604 38.495461-0.65744l17.723487 17.124747c10.810584 10.450557 11.107997 27.682921 0.655483 38.495461z" fill="#E9E8E8" p-id="6112"></path><path d="M776.503184 193.064304c0 1.389233-1.764913 2.516273-3.936813 2.516274h-42.428361c-2.173857 0-3.9329-1.128997-3.9329-2.516274v-6.5744c0-1.389233 1.761-2.516273 3.9329-2.516273h42.428361c2.173857 0 3.936813 1.128997 3.936813 2.516273v6.5744z" fill="#E9E8E8" p-id="6113"></path><path d="M748.06499 214.926142c-1.39119 0-2.51823-1.762957-2.51823-3.934857V168.566837c0-2.175813 1.12704-3.934857 2.51823-3.934857h6.572444c1.39119 0 2.51823 1.761 2.51823 3.934857v42.424448c0 2.173857-1.130953 3.934857-2.51823 3.934857h-6.572444z" fill="#E9E8E8" p-id="6114"></path><path d="M467.743134 149.07648c0 0.853107-1.083993 1.545767-2.416483 1.545767h-26.068671c-1.334447 0-2.41844-0.69266-2.41844-1.545767v-4.03856c0-0.855063 1.08595-1.547723 2.41844-1.547723h26.068671c1.334447 0 2.416483 0.69266 2.416483 1.547723v4.03856z" fill="#E9E8E8" p-id="6115"></path><path d="M450.272057 162.508997c-0.853107 0-1.545767-1.08595-1.545767-2.41844V134.023843c0-1.334447 0.69266-2.41844 1.545767-2.41844h4.036603c0.85702 0 1.545767 1.083993 1.545767 2.41844v26.068671c0 1.33249-0.690703 2.41844-1.545767 2.41844h-4.036603z" fill="#E9E8E8" p-id="6116"></path><path d="M609.257097 117.703286c-13.252504 0-23.996561 10.7421-23.99656 23.998517s10.7421 24.000474 23.99656 24.000474 24.000474-10.746014 24.000474-24.000474-10.74797-23.998517-24.000474-23.998517z m-0.36394 35.423494a11.062994 11.062994 0 1 1 11.062994-11.062993 11.05908 11.05908 0 0 1-11.062994 11.062993z" fill="#E9E8E8" p-id="6117"></path><path d="M504.197791 326.820084m-15.45571 0a15.45571 15.45571 0 1 0 30.911421 0 15.45571 15.45571 0 1 0-30.911421 0Z" fill="#E9E8E8" p-id="6118"></path><path d="M282.043723 431.981137m-9.35091 0a9.35091 9.35091 0 1 0 18.70182 0 9.35091 9.35091 0 1 0-18.70182 0Z" fill="#E9E8E8" p-id="6119"></path><path d="M887.164427 682.389472l-44.555258-40.726061a339.546244 339.546244 0 0 0 7.310107-70.220855c0-186.975158-151.569273-338.544431-338.542474-338.544431-47.012831 0-91.767669 9.618974-132.460467 26.941344l-39.329001-40.763237a10.83015 10.83015 0 0 0-15.582893 15.036983l34.208404 35.458714c7.70731 10.558174 7.02052 25.421014-2.334304 35.192608-10.50143 10.969074-27.909894 11.34671-38.87701 0.849193l-6.772024-6.484393a0.033263 0.033263 0 0 1-0.01174 0.01174l-39.522711-38.229354c-10.544477-10.19619-27.358114-9.918344-37.558217 0.626133-10.20206 10.544477-9.9203 27.360071 0.62222 37.560174l44.713747 43.248204c8.4528 10.16097 8.360837 25.239044-0.794406 35.282615-10.004437 10.978857-27.019611 11.765437-37.998468 1.759043l-4.33793-3.95638-0.183927 0.262193-38.558074-35.243481c-16.561227-15.13873-42.258131-13.98234-57.394904 2.578887-15.136774 16.561227-13.98234 42.256174 2.578886 57.394905l53.692891 49.081028c-14.618257 37.834108-22.642547 78.947588-22.642547 121.939469 0 111.749149 54.154665 210.836708 137.639763 272.49519h401.738896a341.318984 341.318984 0 0 0 50.777458-46.099068l17.878064 16.345994c16.55927 15.134817 42.256174 13.98234 57.396861-2.580844 15.136774-16.55927 13.980384-42.258131-2.578887-57.392948l-25.585374-23.384124 0.060657-0.1174-36.386174-33.261377c-7.697527-7.03226-8.23561-18.973797-1.199437-26.671324s18.97771-8.233654 26.671324-1.19748l27.512691 25.145124 0.056743-0.15262 26.812204 24.509207c10.13162 9.260904 25.853437 8.55259 35.112384-1.577073 9.260904-10.135534 8.554547-25.855394-1.577073-35.116298z m-628.997908-119.350799c0 0.85115-1.083993 1.545767-2.416483 1.545767h-9.470267v9.466353c0 1.33836-0.690703 2.414527-1.54381 2.414527h-4.03856c-0.85702 0-1.545767-1.078123-1.545767-2.414527v-9.466353h-9.46831c-1.334447 0-2.416483-0.694617-2.416483-1.545767v-4.040517c0-0.85115 1.083993-1.545767 2.416483-1.545767h9.46831v-9.464397c0-1.340317 0.69266-2.41844 1.545767-2.41844h4.03856c0.855063 0 1.54381 1.08008 1.54381 2.41844v9.464397h9.470267c1.334447 0 2.416483 0.694617 2.416483 1.545767v4.040517z m23.661971-108.927636c-12.023717 0-21.77183-9.746157-21.771831-21.769874s9.7442-21.769874 21.771831-21.769874c12.025674 0 21.77183 9.746157 21.77183 21.769874s-9.746157 21.769874-21.77183 21.769874z m222.336038-99.641296c-15.60246 0-28.252311-12.64985-28.25231-28.250354 0-15.604417 12.64985-28.252311 28.25231-28.25231s28.250354 12.647894 28.250354 28.25231c0.001957 15.600504-12.647894 28.250354-28.250354 28.250354z m211.012808 20.967641c0 0.855063-1.08595 1.545767-2.41844 1.545767h-9.470267v9.46831c0 1.334447-0.69266 2.41844-1.54381 2.41844h-4.03856c-0.853107 0-1.54381-1.083993-1.54381-2.41844v-9.46831h-9.470267c-1.334447 0-2.41844-0.69266-2.41844-1.545767v-4.03856c0-0.85115 1.08595-1.545767 2.41844-1.545767h9.470267v-9.46831c0-1.334447 0.69266-2.41844 1.54381-2.41844h4.03856c0.853107 0 1.54381 1.083993 1.54381 2.41844v9.46831h9.470267c1.334447 0 2.41844 0.69266 2.41844 1.545767v4.03856z" fill="#E9E8E8" p-id="6120"></path><path d="M565.507986 688.736899c-11.066907-4.04443-22.032067-9.587667-32.598067-16.486874-1.739477-1.158347-3.913333-1.44402-5.99914-0.83354l-31.574731 13.356207c-0.395247 0.115443-2.684547 0.266107-3.060227 0.44025l-15.30896 3.277417 11.154957-43.512354c1.082037-2.95848 5.936527-8.877397 4.16183-11.156914-31.298841-40.440388-37.235368-88.705485-20.318027-134.980653 27.694661-75.756265 114.707629-113.789953 193.983938-84.803892 79.268482 28.980191 121.237026 114.185199 93.546278 189.923854-27.690747 75.730828-114.713499 113.758646-193.987851 84.776499z" fill="#FFFFFF" p-id="6121"></path><path d="M694.299702 526.130069v1.582943a8.427364 8.427364 0 0 1-8.427363 8.425407h-25.781041l-10.36055 36.581841h23.448694a9.0985 9.0985 0 1 1 0 18.200913h-28.604511l-7.570343 26.733938a9.10437 9.10437 0 0 1-17.518037-4.96015l6.167413-21.769874H582.79318l-7.585997 26.77307a9.0985 9.0985 0 0 1-11.23518 6.276987 9.10437 9.10437 0 0 1-6.278944-11.237137l6.179154-21.809007h-19.486444a9.102414 9.102414 0 1 1 0-18.204827h24.642261l10.36055-36.581841h-23.276507a8.427364 8.427364 0 0 1-8.427364-8.425407v-1.582943a8.427364 8.427364 0 0 1 8.427364-8.42932h28.494937l8.18278-28.890184a9.0985 9.0985 0 1 1 17.514124 4.96015l-6.775937 23.930034h42.862741l8.19452-28.933231a9.0985 9.0985 0 1 1 17.514124 4.964064l-6.787677 23.969167h20.560654a8.421494 8.421494 0 0 1 8.427363 8.425407z m-53.131327 10.006393H598.309547l-10.36055 36.581841h42.862741l10.356637-36.581841z" fill="#C9C9C9" p-id="6122"></path><path d="M497.531428 750.223194c-3.617877 0-7.134007 0.59874-10.464254 1.764913v-9.235467a10.286197 10.286197 0 0 0-10.26663-10.274457h-31.324277c-1.422497-2.54171-2.60628-7.26119 2.099503-13.62427 14.05865-18.991407 5.468883-36.182681-1.03312-42.618158a5.654767 5.654767 0 0 0-7.985157 0.037177 5.654767 5.654767 0 0 0 0.037177 7.9832c4.105087 4.06204 9.358737 15.105467-0.101747 27.882501-5.466927 7.386417-6.347427 14.512597-4.97776 20.337594h-22.785384c-0.467643-1.85492-0.412857-4.498377 1.692517-7.73666 10.54252-16.140544 3.68049-29.833297-1.422497-34.816928a5.648897 5.648897 0 0 0-7.979286 0.097833 5.639113 5.639113 0 0 0 0.095876 7.979287c0.080223 0.080223 8.022334 8.07125-0.14088 20.576307-3.435907 5.269303-4.06791 10.04944-3.64527 13.907987h-22.55841c0.086093-0.51069 0.232843-1.019423 0.524386-1.516416 6.502003-10.984727 2.739333-21.493984-0.512646-25.972794a5.615633 5.615633 0 0 0-7.811014-1.25618c-2.522143 1.792307-3.1111 5.314307-1.342273 7.85406 0.444163 0.635917 4.20879 6.447217-0.04109 13.62427a15.7316 15.7316 0 0 0-2.138637 7.26119h-19.867994a10.28424 10.28424 0 0 0-10.268587 10.274457v25.297744c0 41.845274 34.038174 75.881492 75.873665 75.881492 27.215277 0 52.123645-14.590864 65.608992-37.814541a31.625604 31.625604 0 0 0 20.725014 7.705354c17.537604 0 31.807574-14.260187 31.807574-31.799748 0.001957-17.531734-14.260187-31.799747-31.797791-31.799747z m0 52.315398c-6.981387 0-13.42469-3.531783-17.242147-9.450701a5.60585 5.60585 0 0 0-5.191037-2.567146 5.650853 5.650853 0 0 0-4.71948 3.36351c-10.321417 23.542614-33.552921 38.761568-59.185255 38.761567-35.615247 0-64.591525-28.978234-64.591524-64.587611v-24.280277h129.181093v17.67457a5.6352 5.6352 0 0 0 3.177626 5.073637c1.946883 0.9392 4.25575 0.706357 5.956094-0.635917a20.271067 20.271067 0 0 1 12.616587-4.386847c11.313447 0 20.51565 9.19829 20.51565 20.515651-0.00587 11.313447-9.20416 20.519564-20.517607 20.519564z" fill="#CDCECD" p-id="6123"></path><path d="M317.645274 542.616942m-12.595064 0a12.595064 12.595064 0 1 0 25.190128 0 12.595064 12.595064 0 1 0-25.190128 0Z" fill="#FFFFFF" p-id="6124"></path><path d="M358.093488 547.324682l67.103885-0.213276c2.678677-0.007827 4.83688-2.156247 4.829053-4.74296-0.007827-2.592583-2.203207-4.71948-4.85449-4.711654l-67.109755 0.21132c-2.65324 0.007827-4.83688 2.15429-4.827096 4.744917 0.00587 2.58867 2.20125 4.71948 4.858403 4.711653z" fill="#FFFFFF" p-id="6125"></path><path d="M317.797894 584.5307m-12.593107 0a12.593107 12.593107 0 1 0 25.186214 0 12.593107 12.593107 0 1 0-25.186214 0Z" fill="#FFFFFF" p-id="6126"></path><path d="M358.242195 591.173583l67.107798-0.213276c2.67672-0.007827 4.834923-2.156247 4.827097-4.74296-0.007827-2.592583-2.205163-4.71948-4.856447-4.711654l-67.107798 0.209364c-2.655197 0.007827-4.83688 2.15429-4.827097 4.746873 0.00587 2.58867 2.199293 4.71948 4.856447 4.711653z" fill="#FFFFFF" p-id="6127"></path><path d="M317.946601 618.932814m-12.593107 0a12.593107 12.593107 0 1 0 25.186214 0 12.593107 12.593107 0 1 0-25.186214 0Z" fill="#FFFFFF" p-id="6128"></path><path d="M425.467393 613.968751l-67.105842 0.215233c-2.65324 0.007827-4.83688 2.15429-4.829053 4.746873 0.007827 2.5828 2.205163 4.71361 4.858403 4.705784l67.109755-0.213277c2.674763-0.007827 4.832967-2.152333 4.82514-4.741003s-2.20125-4.721437-4.858403-4.71361zM316.774557 512.531235a12.59115 12.59115 0 0 0 12.553974-12.636154 12.59115 12.59115 0 0 0-12.634197-12.553973 12.58528 12.58528 0 0 0-12.553974 12.634197 12.589194 12.589194 0 0 0 12.634197 12.55593zM357.179725 504.647825l67.107798-0.21719c2.674763-0.01174 4.834923-2.152333 4.827097-4.741004-0.007827-2.590627-2.203207-4.723393-4.856447-4.715566l-67.107798 0.215233c-2.651283 0.007827-4.834923 2.152333-4.827097 4.74296 0.00587 2.590627 2.203207 4.723393 4.856447 4.715567z" fill="#FFFFFF" p-id="6129"></path></svg>